The Wolfman UNRATED 1080p BluRay x264-REFiNED   
http://thepiratebay.org/torrent/5579408/The_Wolfman_UNRATED_1080p_BluRay_x264-REFiNED

The Wolfman Unrated 2010 Bluray 720p DTS x264-CHD   
http://thepiratebay.org/torrent/5577827/The_Wolfman_Unrated_2010_Bluray_720p_DTS_x264-CHD

The Wolfman (2010) DVDRip XviD-MAX 

Format                           : AVI  
Format/Info                      : Audio Video Interleave
File size                        : 1.37 GiB 
Duration                         : 1h 59mn 
Overall bit rate                 : 1 642 Kbps  
Writing application              : VirtualDubMod 1.5.10.2 (build 2542/release)
Writing library                  : VirtualDubMod build 2542/release
Original source form             : MAX TORRENTZ
Copyright                        : SIGISMUNT

Video
ID                               : 0
Format                           : MPEG-4 Visual
Format profile                   : AdvancedSimple@L5 
Format settings, BVOP            : No
Format settings, QPel            : No
Format settings, GMC             : No warppoints
Format settings, Matrix          : Default (MPEG)
Codec ID                         : XVID
Codec ID/Hint                    : XviD
Duration                         : 1h 59mn
Bit rate                         : 1 185 Kbps
Width                            : 624 pixels
Height                           : 336 pixels
Display aspect ratio             : 1.857
Frame rate                       : 23.976 fps
Resolution                       : 24 bits
Colorimetry                      : 4:2:0
Scan type                        : Progressive
Bits/(Pixel*Frame)               : 0.236
Stream size                      : 1 010 MiB (72%)
Writing library                  : XviD 1.2.1 (UTC 2008-12-04)

Audio
ID                               : 1
Format                           : AC-3
Format/Info                      : Audio Coding 3
Codec ID                         : 2000
Duration                         : 1h 59mn
Bit rate mode                    : Constant
Bit rate                         : 448 Kbps
Channel(s)                       : 6 channels
Channel positions                : Front: L C R, Surround: L R, LFE
Sampling rate                    : 48.0 KHz
Stream size                      : 382 MiB (27%)
Alignment                        : Split accross interleaves
Interleave, duration             : 42 ms (1.00 video frame)
Interleave, preload duration     : 500 ms

Encode Rating: a/v 10/8.5 Movie: 8 
http://www.imdb.com/title/tt0780653/

Screens: 
http://www.postimg.com/image/15000/14776.jpg 
http://www.postimg.com/image/15000/14777.jpg 
http://www.postimg.com/image/15000/14778.jpg 
http://www.postimg.com/image/15000/14779.jpg 
http://www.postimg.com/image/15000/14780.jpg

ScreenCaps: 
http://www.postimg.com/image/15000/14781.jpg

The Wolfman (2010) DVDRip XviD-MAX Torrent Free Download 
http://thepiratebay.org/user/extremezone/0/7

How To Get Your Maxspeed (uTorrent)

Torrent Client - Preferences - Bandwidth - Number of connections - Set aprox. 500 for each 
Torrent Client - Preferences - BiTorrent - Protocol Encryption - Forced
Bandwidth Allocation - High (Set download/upload limit - Unlimited)
Stop Other Active Torrents - Start downloading and wait for connections
Enjoy and Seed for at least 1:1 ratio. Don't forget to say thanks/leave reviews.
Also please spread the link where you found this torrent to your friends.
Recommended player for all our movies VLC PLAYER.